<?xml version="1.0" encoding="UTF-8"?>
<svg xmlns="http://www.w3.org/2000/svg" viewBox="0 0 64 64">
  <path d="M63.03 64H.97a.97.97 0 0 1-.97-.97V32c0-8.547 3.328-16.583 9.372-22.628C15.417 3.328 23.452 0 32 0s16.583 3.328 22.628 9.372C60.672 15.416 64 23.452 64 32v31.03a.97.97 0 0 1-.97.97M1.94 62.06h60.12V50.209H1.94zM22.625 48.27h39.435V36.418H22.626zm-20.687 0h18.748v-12.82a.97.97 0 0 1 .97-.97h12.822V21.657a.97.97 0 0 1 .97-.97h24.133a1 1 0 0 1 .307.05 30 30 0 0 0-6.633-9.993C47.578 5.066 40.03 1.939 32 1.939s-15.578 3.127-21.256 8.805S1.939 23.97 1.939 32zm34.479-13.79H62.06V32c0-3.405-.564-6.725-1.643-9.85a.97.97 0 0 1-.836.476H36.418z"></path>
</svg>
