<?xml version="1.0" encoding="UTF-8"?>
<svg xmlns="http://www.w3.org/2000/svg" viewBox="0 0 64 64">
  <path d="M32 64c-4.503 0-8.792-.935-12.682-2.62a.9.9 0 0 1-.23-.102C7.857 56.305 0 45.053 0 32 0 14.355 14.355 0 32 0s32 14.355 32 32c0 13.053-7.857 24.305-19.089 29.278a.9.9 0 0 1-.229.102A31.8 31.8 0 0 1 32 64m-11.574-4.052A30.1 30.1 0 0 0 32 62.249c4.097 0 8.007-.818 11.574-2.301V40.015c-1.369.968-3.478 2.197-5.349 2.197-2.34 0-5.055-1.925-6.225-2.851-1.17.926-3.884 2.851-6.225 2.851-1.87 0-3.98-1.23-5.35-2.197zM45.325 38.24v20.914C55.342 54.218 62.249 43.9 62.249 32c0-16.68-13.57-30.25-30.249-30.25S1.751 15.32 1.751 32c0 11.9 6.907 22.218 16.924 27.154V38.24a.86.86 0 0 1 .123-.464L31.24 16.003c.312-.546 1.208-.546 1.52 0l12.442 21.773a.9.9 0 0 1 .123.464M32 37.35c.207 0 .415.074.58.22.91.805 3.695 2.893 5.645 2.893 1.65 0 3.896-1.495 5.1-2.442L32 18.202 20.675 38.02c1.203.947 3.45 2.442 5.1 2.442 1.951 0 4.736-2.088 5.644-2.893a.88.88 0 0 1 .581-.22"></path>
</svg>
