<svg xmlns="http://www.w3.org/2000/svg" viewBox="0 0 64 64">
  <path d="M64 20.042C64 10.65 56.35 3.01 46.95 3.01c-6.245 0-12.014 3.493-14.972 8.883-2.957-5.39-8.725-8.883-14.968-8.883h-.044A16.27 16.27 0 0 0 5.401 7.792C1.986 11.197.021 16.074.003 21.182L0 21.254c0 9.648 5.475 19.57 15.834 28.697 7.752 6.829 15.379 10.765 15.7 10.93a1 1 0 0 0 .455.11h.004q.033-.002.064-.005.04-.002.08-.006h.002l.005-.001a1 1 0 0 0 .101-.044C34.217 60.052 64 44.807 64 20.042m-31.99 38.82c-2.761-1.53-17.576-10.294-17.574-22.07 0-2.654 1.007-5.18 2.763-6.932 1.573-1.568 3.576-2.396 5.798-2.396h.024c3.53 0 6.759 2.209 8.033 5.496a1.001 1.001 0 0 0 1.866 0c1.274-3.287 4.503-5.496 8.034-5.496 4.749 0 8.612 3.859 8.612 8.602 0 12.855-14.935 21.404-17.556 22.797m15.872-11.297c2.175-3.309 3.684-7.166 3.684-11.5 0-5.845-4.76-10.601-10.612-10.601-3.654 0-7.044 1.92-8.967 4.933-1.923-3.014-5.313-4.933-8.963-4.933-2.73.017-5.302 1.05-7.237 2.98-2.13 2.123-3.352 5.166-3.353 8.348 0 3.794 1.325 7.253 3.269 10.297C8.646 40.512 2.03 31.61 2 21.323q.003-.034.003-.07c0-4.606 1.753-8.996 4.81-12.045C9.577 6.45 13.126 5.04 17.007 5.009c6.17 0 11.811 3.86 14.039 9.607a1.001 1.001 0 0 0 1.865 0c2.227-5.746 7.87-9.607 14.039-9.607C55.249 5.01 62 11.753 62 20.042c0 11.418-6.898 20.812-14.118 27.523"></path>
</svg>