<?xml version="1.0" encoding="UTF-8"?>
<svg xmlns="http://www.w3.org/2000/svg" viewBox="0 0 64 64">
  <path d="M17.356 12.725c.03-.03 2.875-3.09 2.875-5.626 0-3.604-2.614-5.422-2.726-5.498A.877.877 0 0 1 18.48.147c.143.095 3.502 2.387 3.502 6.952 0 3.232-3.214 6.68-3.35 6.826a.87.87 0 0 1-1.238.037.875.875 0 0 1-.038-1.237m12.489 1.237a.873.873 0 0 0 1.236-.037c.137-.145 3.352-3.593 3.352-6.826 0-4.565-3.36-6.857-3.503-6.952a.876.876 0 0 0-.974 1.454c.111.076 2.726 1.894 2.726 5.498 0 2.536-2.846 5.595-2.875 5.625a.876.876 0 0 0 .038 1.238m12.45 0a.87.87 0 0 0 1.237-.037c.137-.145 3.35-3.593 3.35-6.826 0-4.565-3.36-6.857-3.502-6.952a.874.874 0 0 0-.974 1.454c.111.076 2.726 1.894 2.726 5.498 0 2.536-2.846 5.595-2.875 5.625a.875.875 0 0 0 .038 1.238M56.22 58.456c0 3.057-2.487 5.544-5.544 5.544s-5.544-2.487-5.544-5.544c0-1.703.773-3.227 1.984-4.245-.01-.019-.026-.033-.035-.053l-1.943-4.164H15.751L9.45 63.495a.876.876 0 0 1-1.587-.74L18.757 39.41a.9.9 0 0 1 .23-.295A22.53 22.53 0 0 1 7.794 20.28a1.54 1.54 0 0 1 .437-1.128 1.58 1.58 0 0 1 1.127-.477h42.174c.422 0 .832.174 1.126.476.295.304.452.704.439 1.127A22.53 22.53 0 0 1 41.9 39.117c.094.079.175.175.23.294l6.488 13.901c.637-.256 1.33-.4 2.057-.4a5.55 5.55 0 0 1 5.544 5.544M30.444 40.462c11.294 0 20.434-8.785 20.894-20.037H9.55c.46 11.251 9.6 20.037 20.894 20.037m13.876 7.781-3.776-8.092a.9.9 0 0 1-.065-.27 22.7 22.7 0 0 1-10.035 2.331c-3.613 0-7.011-.848-10.035-2.33a.9.9 0 0 1-.065.27l-3.776 8.091zm10.148 10.213c0-2.092-1.701-3.793-3.793-3.793s-3.793 1.701-3.793 3.793 1.701 3.793 3.793 3.793 3.793-1.701 3.793-3.793"></path>
</svg>
