<?xml version="1.0" encoding="UTF-8"?>
<svg xmlns="http://www.w3.org/2000/svg" viewBox="0 0 64 64">
  <path d="M32 15.73c4.337 0 7.865-3.528 7.865-7.864S36.337 0 32 0s-7.865 3.529-7.865 7.866S27.663 15.73 32 15.73m0-13.79a5.93 5.93 0 0 1 5.925 5.926c0 3.267-2.657 5.925-5.925 5.925s-5.926-2.658-5.926-5.925A5.933 5.933 0 0 1 32 1.94M63.978 45.74a.97.97 0 0 1-1.153.744c-.304-.066-7.5-1.623-11.943-3.216a.97.97 0 0 1-.623-.724c-2.622-13.162-8.967-20.254-17.94-19.902L32 22.65l-.319-.008c-8.942-.33-15.318 6.74-17.939 19.902a.97.97 0 0 1-.624.724c-4.442 1.593-11.64 3.15-11.944 3.216a.97.97 0 0 1-.408-1.896c.07-.016 6.825-1.477 11.185-2.967 3.9-18.674 14.065-21.131 19.8-20.917l.249.007.248-.007c5.74-.201 15.9 2.243 19.801 20.917 4.361 1.49 11.115 2.951 11.186 2.966a.97.97 0 0 1 .743 1.153M58.09 58.259c0 4.541-4.5 5.74-6.88 5.74H35.45a.96.96 0 0 1-.472-.122l-7.287-4.046-7.286 4.046a.96.96 0 0 1-.471.123H12.79c-2.38 0-6.88-1.2-6.88-5.741 0-6.725 11.088-9.778 13.589-10.38l2.755-5.932a.969.969 0 1 1 1.759.818l-2.956 6.361a.97.97 0 0 1-.677.54C16.895 50.407 7.85 53.4 7.85 58.258c0 3.736 4.742 3.8 4.944 3.801h6.887l7.513-4.173 9.457-6.019a.97.97 0 1 1 1.04 1.636l-8.106 5.16L35.7 62.06h15.51c.2-.001 4.941-.065 4.941-3.801 0-4.859-9.045-7.851-12.531-8.594a.97.97 0 0 1-.678-.539l-2.955-6.361a.973.973 0 0 1 .471-1.29.974.974 0 0 1 1.29.472l2.753 5.932c2.501.602 13.59 3.655 13.59 10.38"></path>
</svg>
