<svg xmlns="http://www.w3.org/2000/svg" viewBox="0 0 64 64">
  <path d="M20.6 36.134a5.14 5.14 0 0 1-4.133 5.031v1.168a1 1 0 1 1-2 0v-1.135c-2.066-.267-3.607-1.257-3.681-1.305a1 1 0 0 1 1.093-1.675c.045.028 1.665 1.049 3.588 1.049a3.137 3.137 0 0 0 3.133-3.133c0-1.332-1.163-2.405-3.456-3.188-3.976-1.355-4.81-3.51-4.81-5.08a5.14 5.14 0 0 1 4.133-5.031v-1.168a1 1 0 0 1 2 0v1.164a5.13 5.13 0 0 1 2.628 1.404 1 1 0 0 1-1.408 1.42 3.134 3.134 0 0 0-5.354 2.212c0 1.333 1.163 2.405 3.457 3.187 3.976 1.356 4.81 3.511 4.81 5.08m14.688-8.424V1A.998.998 0 0 1 36.42.009C50.743 1.92 62.08 13.257 63.99 27.579A1 1 0 0 1 63 28.71H36.288a1 1 0 0 1-1-1m2-1h24.548C59.679 14.194 49.806 4.322 37.288 2.164zm26.465 8.646c.19.217.276.505.238.791a32.14 32.14 0 0 1-6.303 15.205 1 1 0 0 1-1.502.1L41.45 36.722a.999.999 0 0 1 .707-1.707H63a1 1 0 0 1 .753.341m-1.918 1.659H44.572l12.203 12.199a30.15 30.15 0 0 0 5.06-12.2M51.73 55.909a1 1 0 0 1-.1 1.502C45.99 61.721 39.249 64 32.136 64 14.415 64 0 49.583 0 31.863 0 15.823 11.977 2.128 27.858.009A1 1 0 0 1 28.99 1v30.863c0 .843.327 1.635.919 2.23zm-2.237.591-21-20.994a5.13 5.13 0 0 1-1.502-3.643V2.165C12.665 4.635 2 17.205 2 31.863 2 48.48 15.519 62 32.135 62c6.287 0 12.263-1.897 17.358-5.5"></path>
</svg>