<?xml version="1.0" encoding="UTF-8"?>
<svg xmlns="http://www.w3.org/2000/svg" viewBox="0 0 64 64">
  <path d="M59.583 64h-48.27c-4.337 0-7.865-3.528-7.865-7.865V7.865C3.448 3.529 6.976 0 11.313 0h46.2a3.04 3.04 0 0 1 3.04 3.039v45.215c0 .18-.05.348-.134.492a.972.972 0 0 1-.836 1.462h-48.27c-3.268 0-5.926 2.66-5.926 5.927s2.658 5.926 5.926 5.926h48.27a.97.97 0 0 1 0 1.939M11.313 1.94a5.933 5.933 0 0 0-5.926 5.926v43.102a7.85 7.85 0 0 1 5.926-2.7h47.3V3.039a1.1 1.1 0 0 0-1.1-1.099zM32 38.135a3 3 0 0 1-2.137-.878l-10.06-10.14c-3.405-3.43-3.405-9.011 0-12.442a8.76 8.76 0 0 1 6.26-2.608A8.75 8.75 0 0 1 32 14.367a8.88 8.88 0 0 1 5.938-2.3c2.334 0 4.616.951 6.26 2.609a8.77 8.77 0 0 1 2.563 6.221c0 2.349-.91 4.558-2.563 6.222-1.113 1.12-2.214 2.258-3.316 3.396-2.203 2.274-4.481 4.625-6.833 6.828a3.01 3.01 0 0 1-2.05.793m-5.938-24.13a6.83 6.83 0 0 0-4.884 2.036c-2.656 2.677-2.656 7.034 0 9.71l10.061 10.14a1.096 1.096 0 0 0 1.49.031c2.313-2.167 4.574-4.5 6.761-6.758 1.108-1.143 2.214-2.286 3.332-3.412a6.84 6.84 0 0 0 2-4.856 6.85 6.85 0 0 0-2-4.855c-1.282-1.293-3.063-2.035-4.883-2.035s-3.602.742-4.884 2.035l-.366.368a.969.969 0 0 1-1.377 0l-.366-.369a6.83 6.83 0 0 0-4.884-2.034"></path>
</svg>
