<svg xmlns="http://www.w3.org/2000/svg" viewBox="0 0 64 64">
  <path d="M63 62h-3.759l-5.185-8.236V37.459c3.774-.493 6.7-3.722 6.7-7.629V13.12c0-4.246-3.454-7.701-7.7-7.701s-7.702 3.455-7.702 7.701v16.71c0 3.907 2.927 7.136 6.702 7.629v13.128L33.18 20.607l2.975-4.721a1 1 0 1 0-1.691-1.067l-2.465 3.911-2.462-3.91a1 1 0 0 0-1.693 1.065l2.973 4.722L4.759 62H1a1 1 0 1 0 0 2h62a1 1 0 1 0 0-2M47.354 29.83V13.12c0-3.143 2.558-5.701 5.702-5.701s5.7 2.558 5.7 5.701v16.71c0 3.144-2.557 5.701-5.7 5.701s-5.702-2.557-5.702-5.7m-15.356-7.346L56.877 62H41.706l-8.957-19.506c-.164-.357-.526-.556-.916-.583a1 1 0 0 0-.907.595L22.282 62H7.122zM39.505 62H24.47l7.386-16.658zM5.2 17.835h12.563c2.867 0 5.2-2.332 5.2-5.197a5.16 5.16 0 0 0-.944-2.978c.402-.885.612-1.85.612-2.827C22.632 3.065 19.565 0 15.795 0a6.88 6.88 0 0 0-5.303 2.524A5.863 5.863 0 0 0 2.14 8.436 5.2 5.2 0 0 0 0 12.638a5.205 5.205 0 0 0 5.2 5.197M3.706 9.809a1 1 0 0 0 .502-1.117A3.86 3.86 0 0 1 10.2 4.665a1 1 0 0 0 1.439-.302A4.8 4.8 0 0 1 15.795 2a4.84 4.84 0 0 1 4.837 4.833 4.83 4.83 0 0 1-.662 2.441 1 1 0 0 0 .131 1.189 3.18 3.18 0 0 1 .863 2.175 3.203 3.203 0 0 1-3.2 3.197H5.2A3.203 3.203 0 0 1 2 12.638c0-1.185.654-2.269 1.706-2.829"></path>
</svg>