<?xml version="1.0" encoding="UTF-8"?>
<svg xmlns="http://www.w3.org/2000/svg" viewBox="0 0 64 64">
  <path d="M19.657 61.019c-.906 0-1.628-.218-2.186-.502-2.863-1.458-3.897-5.87-2.91-12.426.722-4.79 2.442-10.368 4.938-16.1a82 82 0 0 1-2.952-7.91C8.284 25.685 1.94 28.51 1.94 32.006c0 1.567 1.535 3.234 4.322 4.69a.97.97 0 0 1-.899 1.72C.931 36.096 0 33.65 0 32.006c0-4.6 6.864-7.997 15.985-9.813-2.523-8.952-2.613-16.611 1.486-18.7 1.807-.92 4.078-.598 6.747.961a.97.97 0 0 1-.979 1.674c-1.417-.828-3.415-1.657-4.888-.906-3.115 1.587-2.751 8.524-.428 16.614a81 81 0 0 1 7.283-.883c3.017-4.988 6.31-9.311 9.557-12.509 4.723-4.652 8.899-6.41 11.764-4.95 1.482.755 3.253 2.725 3.277 7.82a.97.97 0 0 1-.964.975h-.005a.97.97 0 0 1-.97-.965c-.015-3.214-.803-5.38-2.22-6.102-2.029-1.039-5.5.642-9.521 4.604-2.885 2.841-5.815 6.616-8.55 10.977 1.47-.073 2.951-.11 4.426-.11 15.73 0 32 4.232 32 11.313 0 2.82-2.592 5.379-7.496 7.398a.97.97 0 0 1-1.265-.528.97.97 0 0 1 .527-1.265c4-1.648 6.295-3.69 6.295-5.605 0-5.524-15.843-9.374-30.061-9.374-1.87 0-3.768.067-5.655.195a92.941 92.941 0 0 0-4.723 9.157 83 83 0 0 0 2.025 4.277c3.717 7.295 8.148 13.66 12.477 17.924 4.021 3.961 7.492 5.634 9.521 4.605 3.384-1.725 3.21-11.938-2.935-26.047a.97.97 0 1 1 1.777-.774c6.211 14.255 7.05 25.995 2.04 28.548-2.863 1.462-7.042-.3-11.764-4.95-4.474-4.406-9.035-10.95-12.844-18.425a88 88 0 0 1-1.336-2.738c-2.055 4.992-3.475 9.803-4.103 13.976-.841 5.58-.159 9.375 1.872 10.41 1.395.71 3.575.101 6.135-1.716a.97.97 0 1 1 1.122 1.581c-2.521 1.79-4.479 2.364-5.952 2.364m-1.16-37.288a82 82 0 0 0 2.103 5.83 95 95 0 0 1 3.393-6.542 81 81 0 0 0-5.497.712m13.51 5.804a.95.95 0 0 1-.645-.247c-.395-.362-.438-.956-.077-1.35l.035-.039a.97.97 0 0 1 1.43 1.31 1 1 0 0 1-.744.326"></path>
</svg>
