<svg xmlns="http://www.w3.org/2000/svg" viewBox="0 0 64 64">
  <path d="M63.907 25.653c-.655-3.287-4.673-5.589-11.321-6.509C48.289 12.289 40.67 7.718 32 7.718c-12.029 0-22.037 8.793-23.948 20.288C2.268 31.4-.561 35.061.092 38.347c.654 3.283 4.675 5.594 11.325 6.513C15.714 51.713 23.33 56.282 32 56.282c12.042 0 22.06-8.812 23.954-20.326 5.368-3.138 8.659-6.755 7.953-10.303M32 9.718c12.286 0 22.282 9.996 22.282 22.282 0 .943-.066 1.871-.18 2.784-4.854 2.688-11.756 5.211-20.179 6.887-7.785 1.547-15.294 2-21.299 1.311A22.14 22.14 0 0 1 9.718 32C9.718 19.714 19.714 9.718 32 9.718M2.055 37.957c-.419-2.104 1.694-4.816 5.712-7.428-.03.487-.05.976-.05 1.47 0 3.813.886 7.42 2.458 10.634-4.763-.876-7.696-2.546-8.12-4.676M32 54.282c-7.379 0-13.928-3.608-17.985-9.15 1.403.11 2.864.172 4.388.172 4.895 0 10.345-.565 15.911-1.672 7.005-1.394 13.941-3.678 19.348-6.427C51.31 46.988 42.493 54.282 32 54.282m24.23-20.775c.031-.499.052-1 .052-1.507 0-3.812-.885-7.42-2.457-10.634 4.712.876 7.702 2.573 8.121 4.677.423 2.13-1.647 4.824-5.716 7.464M20.295 36.86c2.679 0 4.858-2.18 4.858-4.86 0-2.678-2.18-4.858-4.858-4.858s-4.86 2.18-4.86 4.859c0 2.68 2.18 4.859 4.86 4.859m0-7.718A2.86 2.86 0 0 1 23.153 32c0 1.577-1.282 2.859-2.858 2.859s-2.86-1.282-2.86-2.86a2.86 2.86 0 0 1 2.86-2.858m19.422-9.604H35.86v-2h3.858zm7.718 7.718h-3.858v-2h3.858z"></path>
</svg>